<svg xmlns="http://www.w3.org/2000/svg" viewBox="0 0 806.39 127.02"><path d="M7.2,100,24,14,51.84,76.14,79.92,14,95,100H82.56L74.4,51.78l-23.28,52-23-52.08L19.68,100Z"/><path d="M146.64,49.5H158.4V100H146.64V94.74a19.4,19.4,0,0,1-15.12,6.84c-15.6,0-24.48-13-24.48-26.88,0-16.44,11.28-26.52,24.6-26.52a18.42,18.42,0,0,1,15,7.2ZM119,74.94c0,8.76,5.52,16.08,14,16.08,7.44,0,14.28-5.4,14.28-16,0-11-6.84-16.32-14.28-16.32C124.56,58.74,119,65.94,119,74.94Z"/><path d="M173.28,49.5H185v4.56a20.34,20.34,0,0,1,4.92-4.2,13.58,13.58,0,0,1,7.2-1.68,17.45,17.45,0,0,1,9.24,2.4l-4.8,10.68a10.65,10.65,0,0,0-6-1.8c-2.52,0-5,.36-7.32,2.76C185,65.7,185,70.5,185,73.86V100H173.28Z"/><path d="M248.52,65c-5.4-5.28-10.68-6.24-14.28-6.24a15.12,15.12,0,0,0-11.16,4.44c-2.16,2.16-4.32,6-4.32,11.64,0,5.88,2.28,9.84,4.56,12.12A15.28,15.28,0,0,0,234,91a19.69,19.69,0,0,0,14.52-6.48V97.62c-2.88,1.8-7.56,4-15.36,4-8.4,0-14.4-2.4-19.2-7.44-3.6-3.72-7.2-9.72-7.2-19,0-9.48,4-15.84,7.68-19.56,4-4,10.32-7.44,20.28-7.44a27.12,27.12,0,0,1,13.8,3.6Z"/><path d="M305,88.5a26.49,26.49,0,0,1-8.52,9.24c-4.08,2.64-9.48,3.84-14.88,3.84-6.72,0-12.24-1.68-17-6.48s-7.44-11.76-7.44-19.32a29.61,29.61,0,0,1,8-20.76,23,23,0,0,1,16.92-6.84,21.75,21.75,0,0,1,16.2,6.6c6.48,6.72,7.08,16.08,7.08,21.36v1.44H269.16a16.7,16.7,0,0,0,4.32,10.2c2.76,2.76,6.12,3.24,9,3.24a12.38,12.38,0,0,0,8-2.52A18.25,18.25,0,0,0,295.2,83ZM293.4,68a12.22,12.22,0,0,0-3.6-6.84,12.26,12.26,0,0,0-16.2.36A13.24,13.24,0,0,0,270,68Z"/><path d="M329.4,12.54V100H317.64V12.54Z"/><path d="M395.63,74.82c0,15.48-11.76,26.76-27,26.76s-27-11.28-27-26.76,11.75-26.64,27-26.64S395.63,59.22,395.63,74.82Zm-12,.12c0-11.52-7.56-16.2-15-16.2s-15,4.68-15,16.2c0,9.72,5.76,16.08,15,16.08S383.63,84.66,383.63,74.94Z"/><path d="M485,80.7h-34.2L442.07,100h-13.2L468.71,15.3,506.63,100h-13.2Zm-4.92-11.52L468.23,42.06,455.87,69.18Z"/><path d="M514.43,49.5h11.76v4.68a17.4,17.4,0,0,1,13.68-6c9.36,0,13.32,4.68,14.88,6.84,1.92,2.76,3.12,6.24,3.12,14v31H546.11V71.94c0-12.84-4.8-13.2-9.24-13.2-5.28,0-10.68.72-10.68,17V100H514.43Z"/><path d="M584.87,60.3V100H573.11V60.3h-4.92V49.5h4.92V31h11.76V49.5h9V60.3Z"/><path d="M653.15,74.82c0,15.48-11.76,26.76-27,26.76s-27-11.28-27-26.76,11.76-26.64,27-26.64S653.15,59.22,653.15,74.82Zm-37.56-33-7.92-6.24L626.15,19l18.48,16.56-7.92,6.24L626.15,31.5Zm25.56,33.12c0-11.52-7.56-16.2-15-16.2s-15,4.68-15,16.2c0,9.72,5.76,16.08,15,16.08S641.15,84.66,641.15,74.94Z"/><path d="M665.27,49.5H677v4.68a17.4,17.4,0,0,1,13.68-6c9.36,0,13.32,4.68,14.88,6.84,1.92,2.76,3.12,6.24,3.12,14v31H697V71.94c0-12.84-4.8-13.2-9.24-13.2-5.28,0-10.68.72-10.68,17V100H665.27Z"/><path d="M729.47,21.06A7.38,7.38,0,0,1,737,28.62a7.56,7.56,0,1,1-15.12,0A7.38,7.38,0,0,1,729.47,21.06Zm5.88,28.44V100H723.59V49.5Z"/><path d="M801.58,74.82c0,15.48-11.76,26.76-27,26.76s-27-11.28-27-26.76,11.76-26.64,27-26.64S801.58,59.22,801.58,74.82Zm-12,.12c0-11.52-7.56-16.2-15-16.2s-15,4.68-15,16.2c0,9.72,5.76,16.08,15,16.08S789.58,84.66,789.58,74.94Z"/></svg>