<svg xmlns="http://www.w3.org/2000/svg" viewBox="0 0 864 198"><defs><style>.a{fill:#fff;}</style></defs><rect y="126" width="864" height="72"/><path d="M36,99l16.8-86L80.65,75.12,108.72,13l15.12,86H111.36L103.2,50.76l-23.27,52-23-52.08L48.49,99Z"/><path d="M175.44,48.48H187.2V99H175.44V93.72a19.4,19.4,0,0,1-15.12,6.84c-15.59,0-24.47-13-24.47-26.88,0-16.44,11.28-26.52,24.59-26.52a18.42,18.42,0,0,1,15,7.2ZM147.85,73.92c0,8.76,5.51,16.08,14,16.08,7.44,0,14.28-5.4,14.28-16,0-11-6.84-16.32-14.28-16.32C153.36,57.72,147.85,64.92,147.85,73.92Z"/><path d="M202.09,48.48h11.76V53a20.15,20.15,0,0,1,4.92-4.2A13.53,13.53,0,0,1,226,47.16a17.45,17.45,0,0,1,9.24,2.4l-4.8,10.68a10.65,10.65,0,0,0-6-1.8c-2.52,0-5,.36-7.32,2.76-3.23,3.48-3.23,8.28-3.23,11.64V99H202.09Z"/><path d="M277.32,64c-5.4-5.28-10.68-6.24-14.28-6.24a15.12,15.12,0,0,0-11.16,4.44c-2.16,2.16-4.32,6-4.32,11.64,0,5.88,2.28,9.84,4.56,12.12A15.28,15.28,0,0,0,262.8,90a19.69,19.69,0,0,0,14.52-6.48V96.6c-2.88,1.8-7.56,4-15.36,4-8.4,0-14.4-2.4-19.2-7.44-3.6-3.72-7.2-9.72-7.2-19,0-9.48,4-15.84,7.68-19.56,4-4,10.32-7.44,20.28-7.44a27.12,27.12,0,0,1,13.8,3.6Z"/><path d="M333.84,87.48a26.49,26.49,0,0,1-8.52,9.24c-4.08,2.64-9.48,3.84-14.88,3.84-6.72,0-12.24-1.68-17-6.48S286,82.32,286,74.76A29.61,29.61,0,0,1,294,54a23,23,0,0,1,16.92-6.84,21.75,21.75,0,0,1,16.2,6.6c6.48,6.72,7.08,16.08,7.08,21.36v1.44H298a16.7,16.7,0,0,0,4.32,10.2c2.76,2.76,6.12,3.24,9,3.24a12.38,12.38,0,0,0,8-2.52A18.25,18.25,0,0,0,324,82ZM322.2,67a12.22,12.22,0,0,0-3.6-6.84,12.26,12.26,0,0,0-16.2.36A13.24,13.24,0,0,0,298.8,67Z"/><path d="M358.2,11.52V99H346.44V11.52Z"/><path d="M424.44,73.8c0,15.48-11.76,26.76-27,26.76s-27-11.28-27-26.76,11.76-26.64,27-26.64S424.44,58.2,424.44,73.8Zm-12,.12c0-11.52-7.56-16.2-15-16.2s-15,4.68-15,16.2c0,9.72,5.76,16.08,15,16.08S412.44,83.64,412.44,73.92Z"/><path d="M513.84,79.68h-34.2L470.88,99h-13.2l39.84-84.72L535.44,99h-13.2Zm-4.92-11.52L497,41,484.68,68.16Z"/><path d="M543.24,48.48H555v4.68a17.4,17.4,0,0,1,13.68-6c9.36,0,13.32,4.68,14.88,6.84,1.92,2.76,3.12,6.24,3.12,14V99H574.92V70.92c0-12.84-4.8-13.2-9.24-13.2-5.28,0-10.68.72-10.68,17V99H543.24Z"/><path d="M613.68,59.28V99H601.92V59.28H597V48.48h4.92V30h11.76V48.48h9v10.8Z"/><path d="M682,73.8c0,15.48-11.76,26.76-27,26.76S628,89.28,628,73.8s11.76-26.64,27-26.64S682,58.2,682,73.8Zm-37.56-33-7.92-6.24L655,18l18.47,16.56-7.91,6.24L655,30.48ZM670,73.92c0-11.52-7.56-16.2-15-16.2s-15,4.68-15,16.2C640,83.64,645.72,90,655,90S670,83.64,670,73.92Z"/><path d="M694.08,48.48h11.76v4.68a17.4,17.4,0,0,1,13.68-6c9.36,0,13.31,4.68,14.87,6.84,1.92,2.76,3.12,6.24,3.12,14V99H725.75V70.92c0-12.84-4.79-13.2-9.23-13.2-5.28,0-10.68.72-10.68,17V99H694.08Z"/><path d="M758.27,20a7.38,7.38,0,0,1,7.56,7.56,7.56,7.56,0,0,1-15.12,0A7.38,7.38,0,0,1,758.27,20Zm5.88,28.44V99H752.39V48.48Z"/><path d="M830.39,73.8c0,15.48-11.76,26.76-27,26.76s-27-11.28-27-26.76,11.76-26.64,27-26.64S830.39,58.2,830.39,73.8Zm-12,.12c0-11.52-7.56-16.2-15-16.2s-15,4.68-15,16.2c0,9.72,5.76,16.08,15,16.08S818.39,83.64,818.39,73.92Z"/><path class="a" d="M29.17,148.86a6.2,6.2,0,0,0-6.12-4c-3.72,0-5.64,2.22-5.64,4.8,0,1.2.42,3.3,4.32,4.86l4,1.62c7.38,3,9.42,7.2,9.42,11.76,0,7.62-5.4,12.84-12.9,12.84a11.71,11.71,0,0,1-9.42-4A13,13,0,0,1,9.49,169l6.06-1.32a8.64,8.64,0,0,0,1.68,5.1,6.31,6.31,0,0,0,5.22,2.4A6.42,6.42,0,0,0,29,168.42c0-4.08-3.11-5.76-5.75-6.84L19.45,160c-3.3-1.38-8.16-4.14-8.16-10.14,0-5.4,4.2-10.56,11.7-10.56a11.75,11.75,0,0,1,8,2.7,13.47,13.47,0,0,1,3.06,4Z"/><path class="a" d="M67.44,167.4a13.12,13.12,0,0,1-13.5,13.38A13.12,13.12,0,0,1,40.45,167.4c0-7.8,5.88-13.32,13.49-13.32S67.44,159.6,67.44,167.4Zm-6,.06c0-5.76-3.78-8.1-7.5-8.1s-7.49,2.34-7.49,8.1c0,4.86,2.88,8,7.49,8S61.44,172.32,61.44,167.46Z"/><path class="a" d="M93.12,162.48A9.92,9.92,0,0,0,86,159.36a7.56,7.56,0,0,0-5.58,2.22,8.07,8.07,0,0,0-2.15,5.82,8.37,8.37,0,0,0,2.27,6.06,7.64,7.64,0,0,0,5.34,2,9.84,9.84,0,0,0,7.26-3.24v6.54a13.83,13.83,0,0,1-7.68,2c-4.2,0-7.19-1.2-9.6-3.72a13.13,13.13,0,0,1-3.59-9.48,13.53,13.53,0,0,1,3.83-9.78c2-2,5.16-3.72,10.14-3.72a13.56,13.56,0,0,1,6.9,1.8Z"/><path class="a" d="M101.71,140.52a3.78,3.78,0,1,1-3.78,3.78A3.68,3.68,0,0,1,101.71,140.52Zm2.94,14.22V180H98.77V154.74Z"/><path class="a" d="M134.7,174.24a13.24,13.24,0,0,1-4.26,4.62,13.9,13.9,0,0,1-7.44,1.92,11.2,11.2,0,0,1-8.52-3.24,13.56,13.56,0,0,1-3.72-9.66,14.81,14.81,0,0,1,4-10.38,11.51,11.51,0,0,1,8.46-3.42,10.88,10.88,0,0,1,8.1,3.3c3.24,3.36,3.54,8,3.54,10.68v.72H116.76a8.35,8.35,0,0,0,2.16,5.1,6,6,0,0,0,4.5,1.62,6.19,6.19,0,0,0,4-1.26,9.12,9.12,0,0,0,2.34-2.76ZM128.88,164a6.11,6.11,0,0,0-1.8-3.42,6.13,6.13,0,0,0-8.1.18,6.62,6.62,0,0,0-1.8,3.24Z"/><path class="a" d="M159.48,136.26h5.88V180h-5.88v-2.64a9.7,9.7,0,0,1-7.56,3.42c-7.8,0-12.24-6.48-12.24-13.44,0-8.22,5.64-13.26,12.3-13.26a9.21,9.21,0,0,1,7.5,3.6Zm-13.8,31.2c0,4.38,2.76,8,7,8,3.72,0,7.14-2.7,7.14-8,0-5.52-3.42-8.16-7.14-8.16C148.44,159.36,145.68,163,145.68,167.46Z"/><path class="a" d="M191.28,154.74h5.88V180h-5.88v-2.64a9.7,9.7,0,0,1-7.56,3.42c-7.8,0-12.24-6.48-12.24-13.44,0-8.22,5.64-13.26,12.3-13.26a9.21,9.21,0,0,1,7.5,3.6Zm-13.8,12.72c0,4.38,2.76,8,7,8,3.72,0,7.14-2.7,7.14-8,0-5.52-3.42-8.16-7.14-8.16C180.24,159.36,177.48,163,177.48,167.46Z"/><path class="a" d="M223.08,136.26H229V180h-5.88v-2.64a9.7,9.7,0,0,1-7.56,3.42c-7.8,0-12.24-6.48-12.24-13.44,0-8.22,5.64-13.26,12.3-13.26a9.21,9.21,0,0,1,7.5,3.6Zm-13.8,31.2c0,4.38,2.76,8,7,8,3.72,0,7.14-2.7,7.14-8,0-5.52-3.42-8.16-7.14-8.16C212,159.36,209.28,163,209.28,167.46Z"/><path class="a" d="M259,174.24a13.24,13.24,0,0,1-4.26,4.62,13.9,13.9,0,0,1-7.44,1.92,11.2,11.2,0,0,1-8.52-3.24,13.56,13.56,0,0,1-3.72-9.66,14.81,14.81,0,0,1,4-10.38,11.51,11.51,0,0,1,8.46-3.42,10.88,10.88,0,0,1,8.1,3.3c3.24,3.36,3.54,8,3.54,10.68v.72H241.08a8.35,8.35,0,0,0,2.16,5.1,6,6,0,0,0,4.5,1.62,6.19,6.19,0,0,0,4-1.26,9.12,9.12,0,0,0,2.34-2.76ZM253.2,164a6.11,6.11,0,0,0-1.8-3.42,6.13,6.13,0,0,0-8.1.18,6.62,6.62,0,0,0-1.8,3.24Z"/><path class="a" d="M286.5,140v40h-6.12V140Z"/><path class="a" d="M295,154.74h5.88v2.34a8.7,8.7,0,0,1,6.84-3c4.68,0,6.66,2.34,7.44,3.42,1,1.38,1.56,3.12,1.56,7V180H310.8V166c0-6.42-2.4-6.6-4.62-6.6-2.64,0-5.34.36-5.34,8.52V180H295Z"/><path class="a" d="M342.6,136.26h5.88V180H342.6v-2.64a9.7,9.7,0,0,1-7.56,3.42c-7.8,0-12.24-6.48-12.24-13.44,0-8.22,5.64-13.26,12.3-13.26a9.21,9.21,0,0,1,7.5,3.6Zm-13.8,31.2c0,4.38,2.76,8,7,8,3.72,0,7.14-2.7,7.14-8,0-5.52-3.42-8.16-7.14-8.16C331.56,159.36,328.8,163,328.8,167.46Z"/><path class="a" d="M358.86,140.52a3.78,3.78,0,1,1-3.78,3.78A3.69,3.69,0,0,1,358.86,140.52Zm2.94,14.22V180h-5.88V154.74Z"/><path class="a" d="M372.48,154.74l6.48,14.4,6.48-14.4H392L379,181.8l-13.08-27.06Z"/><path class="a" d="M399.06,140.52a3.78,3.78,0,1,1-3.78,3.78A3.69,3.69,0,0,1,399.06,140.52ZM402,154.74V180h-5.88V154.74Z"/><path class="a" d="M427.92,136.26h5.88V180h-5.88v-2.64a9.7,9.7,0,0,1-7.56,3.42c-7.8,0-12.24-6.48-12.24-13.44,0-8.22,5.64-13.26,12.3-13.26a9.21,9.21,0,0,1,7.5,3.6Zm-13.8,31.2c0,4.38,2.76,8,7,8,3.72,0,7.14-2.7,7.14-8,0-5.52-3.42-8.16-7.14-8.16C416.88,159.36,414.12,163,414.12,167.46Z"/><path class="a" d="M447.12,154.74V169.2a7.27,7.27,0,0,0,1.08,4.56,5.11,5.11,0,0,0,7.68,0A7.27,7.27,0,0,0,457,169.2V154.74h5.88v14.64c0,3.24-.36,5.94-2.7,8.28a11.52,11.52,0,0,1-8.22,3.12,11.1,11.1,0,0,1-8-3.12c-2.34-2.34-2.7-5-2.7-8.28V154.74Z"/><path class="a" d="M488.76,154.74h5.88V180h-5.88v-2.64a9.7,9.7,0,0,1-7.56,3.42c-7.8,0-12.24-6.48-12.24-13.44,0-8.22,5.64-13.26,12.3-13.26a9.21,9.21,0,0,1,7.5,3.6ZM475,167.46c0,4.38,2.76,8,7,8,3.72,0,7.14-2.7,7.14-8,0-5.52-3.42-8.16-7.14-8.16C477.72,159.36,475,163,475,167.46Z"/><path class="a" d="M508,136.26V180h-5.88V136.26Z"/><path class="a" d="M547.86,136.26h5.88V180h-5.88v-2.64a9.7,9.7,0,0,1-7.56,3.42c-7.8,0-12.24-6.48-12.24-13.44,0-8.22,5.64-13.26,12.3-13.26a9.21,9.21,0,0,1,7.5,3.6Zm-13.8,31.2c0,4.38,2.76,8,7,8,3.72,0,7.14-2.7,7.14-8,0-5.52-3.42-8.16-7.14-8.16C536.82,159.36,534.06,163,534.06,167.46Z"/><path class="a" d="M583.8,174.24a13.24,13.24,0,0,1-4.26,4.62,13.9,13.9,0,0,1-7.44,1.92,11.2,11.2,0,0,1-8.52-3.24,13.56,13.56,0,0,1-3.72-9.66,14.81,14.81,0,0,1,4-10.38,11.51,11.51,0,0,1,8.46-3.42,10.88,10.88,0,0,1,8.1,3.3c3.24,3.36,3.54,8,3.54,10.68v.72H565.86a8.35,8.35,0,0,0,2.16,5.1,6,6,0,0,0,4.5,1.62,6.19,6.19,0,0,0,4-1.26,9.12,9.12,0,0,0,2.34-2.76ZM578,164a6.11,6.11,0,0,0-1.8-3.42,6.13,6.13,0,0,0-8.1.18,6.62,6.62,0,0,0-1.8,3.24Z"/><path class="a" d="M628.67,170.34H611.58L607.2,180h-6.6l19.92-42.36,19,42.36h-6.59Zm-2.46-5.76L620.28,151l-6.18,13.56Z"/><path class="a" d="M661.91,136.26h5.88V180h-5.88v-2.64a9.7,9.7,0,0,1-7.56,3.42c-7.8,0-12.23-6.48-12.23-13.44,0-8.22,5.63-13.26,12.29-13.26a9.21,9.21,0,0,1,7.5,3.6Zm-13.79,31.2c0,4.38,2.76,8,7,8,3.72,0,7.14-2.7,7.14-8,0-5.52-3.42-8.16-7.14-8.16C650.88,159.36,648.12,163,648.12,167.46Z"/><path class="a" d="M678.47,154.74l6.49,14.4,6.47-14.4H698L685,181.8l-13.08-27.06Z"/><path class="a" d="M727.19,167.4a13.5,13.5,0,0,1-27,0c0-7.8,5.88-13.32,13.5-13.32S727.19,159.6,727.19,167.4Zm-6,.06c0-5.76-3.78-8.1-7.5-8.1s-7.5,2.34-7.5,8.1c0,4.86,2.88,8,7.5,8S721.2,172.32,721.2,167.46Z"/><path class="a" d="M752.88,162.48a9.93,9.93,0,0,0-7.14-3.12,7.56,7.56,0,0,0-5.58,2.22A8.07,8.07,0,0,0,738,167.4a8.37,8.37,0,0,0,2.28,6.06,7.64,7.64,0,0,0,5.34,2,9.87,9.87,0,0,0,7.26-3.24v6.54a13.88,13.88,0,0,1-7.68,2c-4.2,0-7.2-1.2-9.6-3.72a13.13,13.13,0,0,1-3.6-9.48,13.49,13.49,0,0,1,3.84-9.78c2-2,5.16-3.72,10.13-3.72a13.62,13.62,0,0,1,6.91,1.8Z"/><path class="a" d="M777,154.74h5.88V180H777v-2.64a9.7,9.7,0,0,1-7.56,3.42c-7.8,0-12.23-6.48-12.23-13.44,0-8.22,5.63-13.26,12.29-13.26a9.21,9.21,0,0,1,7.5,3.6Zm-13.8,12.72c0,4.38,2.76,8,7,8,3.72,0,7.14-2.7,7.14-8,0-5.52-3.42-8.16-7.14-8.16C766,159.36,763.19,163,763.19,167.46Z"/><path class="a" d="M809.88,162.48a9.93,9.93,0,0,0-7.14-3.12,7.56,7.56,0,0,0-5.58,2.22A8.07,8.07,0,0,0,795,167.4a8.37,8.37,0,0,0,2.28,6.06,7.64,7.64,0,0,0,5.34,2,9.87,9.87,0,0,0,7.26-3.24v6.54a13.88,13.88,0,0,1-7.68,2c-4.2,0-7.2-1.2-9.6-3.72a13.13,13.13,0,0,1-3.6-9.48,13.49,13.49,0,0,1,3.84-9.78c2-2,5.16-3.72,10.13-3.72a13.62,13.62,0,0,1,6.91,1.8Z"/><path class="a" d="M818.46,140.52a3.78,3.78,0,1,1-3.79,3.78A3.69,3.69,0,0,1,818.46,140.52Zm2.93,14.22V180h-5.88V154.74Z"/><path class="a" d="M847.31,154.74h5.88V180h-5.88v-2.64a9.7,9.7,0,0,1-7.56,3.42c-7.8,0-12.24-6.48-12.24-13.44,0-8.22,5.64-13.26,12.3-13.26a9.21,9.21,0,0,1,7.5,3.6Zm-13.8,12.72c0,4.38,2.76,8,7,8,3.72,0,7.14-2.7,7.14-8,0-5.52-3.42-8.16-7.14-8.16C836.27,159.36,833.51,163,833.51,167.46Z"/></svg>