<svg xmlns="http://www.w3.org/2000/svg" viewBox="0 0 900 234"><defs><style>.a{fill:#fff;}</style></defs><rect x="18" y="144" width="864" height="72"/><path d="M54,117l16.8-86L98.65,93.12,126.72,31l15.12,86H129.36L121.2,68.76l-23.27,52-23-52.08L66.49,117Z"/><path d="M193.44,66.48H205.2V117H193.44v-5.28a19.4,19.4,0,0,1-15.12,6.84c-15.59,0-24.47-13-24.47-26.88,0-16.44,11.28-26.52,24.59-26.52a18.42,18.42,0,0,1,15,7.2ZM165.85,91.92c0,8.76,5.51,16.08,14,16.08,7.44,0,14.28-5.4,14.28-16,0-11-6.84-16.32-14.28-16.32C171.36,75.72,165.85,82.92,165.85,91.92Z"/><path d="M220.09,66.48h11.76V71a20.15,20.15,0,0,1,4.92-4.2A13.53,13.53,0,0,1,244,65.16a17.45,17.45,0,0,1,9.24,2.4l-4.8,10.68a10.65,10.65,0,0,0-6-1.8c-2.52,0-5,.36-7.32,2.76-3.23,3.48-3.23,8.28-3.23,11.64V117H220.09Z"/><path d="M295.32,82c-5.4-5.28-10.68-6.24-14.28-6.24a15.12,15.12,0,0,0-11.16,4.44c-2.16,2.16-4.32,6-4.32,11.64,0,5.88,2.28,9.84,4.56,12.12A15.28,15.28,0,0,0,280.8,108a19.69,19.69,0,0,0,14.52-6.48V114.6c-2.88,1.8-7.56,4-15.36,4-8.4,0-14.4-2.4-19.2-7.44-3.6-3.72-7.2-9.72-7.2-19,0-9.48,4-15.84,7.68-19.56,4-4,10.32-7.44,20.28-7.44a27.12,27.12,0,0,1,13.8,3.6Z"/><path d="M351.84,105.48a26.49,26.49,0,0,1-8.52,9.24c-4.08,2.64-9.48,3.84-14.88,3.84-6.72,0-12.24-1.68-17-6.48S304,100.32,304,92.76A29.61,29.61,0,0,1,312,72a23,23,0,0,1,16.92-6.84,21.75,21.75,0,0,1,16.2,6.6c6.48,6.72,7.08,16.08,7.08,21.36v1.44H316a16.7,16.7,0,0,0,4.32,10.2c2.76,2.76,6.12,3.24,9,3.24a12.38,12.38,0,0,0,8-2.52A18.25,18.25,0,0,0,342,100ZM340.2,85a12.22,12.22,0,0,0-3.6-6.84,12.26,12.26,0,0,0-16.2.36A13.24,13.24,0,0,0,316.8,85Z"/><path d="M376.2,29.52V117H364.44V29.52Z"/><path d="M442.44,91.8c0,15.48-11.76,26.76-27,26.76s-27-11.28-27-26.76,11.76-26.64,27-26.64S442.44,76.2,442.44,91.8Zm-12,.12c0-11.52-7.56-16.2-15-16.2s-15,4.68-15,16.2c0,9.72,5.76,16.08,15,16.08S430.44,101.64,430.44,91.92Z"/><path d="M531.84,97.68h-34.2L488.88,117h-13.2l39.84-84.72L553.44,117h-13.2Zm-4.92-11.52L515,59,502.68,86.16Z"/><path d="M561.24,66.48H573v4.68a17.4,17.4,0,0,1,13.68-6c9.36,0,13.32,4.68,14.88,6.84,1.92,2.76,3.12,6.24,3.12,14v31H592.92V88.92c0-12.84-4.8-13.2-9.24-13.2-5.28,0-10.68.72-10.68,17V117H561.24Z"/><path d="M631.68,77.28V117H619.92V77.28H615V66.48h4.92V48h11.76V66.48h9v10.8Z"/><path d="M700,91.8c0,15.48-11.76,26.76-27,26.76s-27-11.28-27-26.76,11.76-26.64,27-26.64S700,76.2,700,91.8Zm-37.56-33-7.92-6.24L673,36l18.47,16.56-7.91,6.24L673,48.48ZM688,91.92c0-11.52-7.56-16.2-15-16.2s-15,4.68-15,16.2c0,9.72,5.76,16.08,15,16.08S688,101.64,688,91.92Z"/><path d="M712.08,66.48h11.76v4.68a17.4,17.4,0,0,1,13.68-6c9.36,0,13.31,4.68,14.87,6.84,1.92,2.76,3.12,6.24,3.12,14v31H743.75V88.92c0-12.84-4.79-13.2-9.23-13.2-5.28,0-10.68.72-10.68,17V117H712.08Z"/><path d="M776.27,38a7.56,7.56,0,1,1-7.56,7.56A7.38,7.38,0,0,1,776.27,38Zm5.88,28.44V117H770.39V66.48Z"/><path d="M848.39,91.8c0,15.48-11.76,26.76-27,26.76s-27-11.28-27-26.76,11.76-26.64,27-26.64S848.39,76.2,848.39,91.8Zm-12,.12c0-11.52-7.56-16.2-15-16.2s-15,4.68-15,16.2c0,9.72,5.76,16.08,15,16.08S836.39,101.64,836.39,91.92Z"/><path class="a" d="M47.17,166.86a6.2,6.2,0,0,0-6.12-4c-3.72,0-5.64,2.22-5.64,4.8,0,1.2.42,3.3,4.32,4.86l4,1.62c7.38,3,9.42,7.2,9.42,11.76,0,7.62-5.4,12.84-12.9,12.84a11.71,11.71,0,0,1-9.42-4,13,13,0,0,1-3.36-7.8l6.06-1.32a8.64,8.64,0,0,0,1.68,5.1,6.31,6.31,0,0,0,5.22,2.4A6.42,6.42,0,0,0,47,186.42c0-4.08-3.11-5.76-5.75-6.84L37.45,178c-3.3-1.38-8.16-4.14-8.16-10.14,0-5.4,4.2-10.56,11.7-10.56a11.75,11.75,0,0,1,8,2.7,13.47,13.47,0,0,1,3.06,4Z"/><path class="a" d="M85.44,185.4a13.12,13.12,0,0,1-13.5,13.38A13.12,13.12,0,0,1,58.45,185.4c0-7.8,5.88-13.32,13.49-13.32S85.44,177.6,85.44,185.4Zm-6,.06c0-5.76-3.78-8.1-7.5-8.1s-7.49,2.34-7.49,8.1c0,4.86,2.88,8,7.49,8S79.44,190.32,79.44,185.46Z"/><path class="a" d="M111.12,180.48a9.92,9.92,0,0,0-7.14-3.12,7.56,7.56,0,0,0-5.58,2.22,8.07,8.07,0,0,0-2.15,5.82,8.37,8.37,0,0,0,2.27,6.06,7.64,7.64,0,0,0,5.34,2,9.84,9.84,0,0,0,7.26-3.24v6.54a13.83,13.83,0,0,1-7.68,2c-4.2,0-7.19-1.2-9.6-3.72a13.13,13.13,0,0,1-3.59-9.48,13.53,13.53,0,0,1,3.83-9.78c2-2,5.16-3.72,10.14-3.72a13.56,13.56,0,0,1,6.9,1.8Z"/><path class="a" d="M119.71,158.52a3.78,3.78,0,1,1-3.78,3.78A3.68,3.68,0,0,1,119.71,158.52Zm2.94,14.22V198h-5.88V172.74Z"/><path class="a" d="M152.7,192.24a13.24,13.24,0,0,1-4.26,4.62,13.9,13.9,0,0,1-7.44,1.92,11.2,11.2,0,0,1-8.52-3.24,13.56,13.56,0,0,1-3.72-9.66,14.81,14.81,0,0,1,4-10.38,11.51,11.51,0,0,1,8.46-3.42,10.88,10.88,0,0,1,8.1,3.3c3.24,3.36,3.54,8,3.54,10.68v.72H134.76a8.35,8.35,0,0,0,2.16,5.1,6,6,0,0,0,4.5,1.62,6.19,6.19,0,0,0,4-1.26,9.12,9.12,0,0,0,2.34-2.76ZM146.88,182a6.11,6.11,0,0,0-1.8-3.42,6.13,6.13,0,0,0-8.1.18,6.62,6.62,0,0,0-1.8,3.24Z"/><path class="a" d="M177.48,154.26h5.88V198h-5.88v-2.64a9.7,9.7,0,0,1-7.56,3.42c-7.8,0-12.24-6.48-12.24-13.44,0-8.22,5.64-13.26,12.3-13.26a9.21,9.21,0,0,1,7.5,3.6Zm-13.8,31.2c0,4.38,2.76,8,7,8,3.72,0,7.14-2.7,7.14-8,0-5.52-3.42-8.16-7.14-8.16C166.44,177.36,163.68,181,163.68,185.46Z"/><path class="a" d="M209.28,172.74h5.88V198h-5.88v-2.64a9.7,9.7,0,0,1-7.56,3.42c-7.8,0-12.24-6.48-12.24-13.44,0-8.22,5.64-13.26,12.3-13.26a9.21,9.21,0,0,1,7.5,3.6Zm-13.8,12.72c0,4.38,2.76,8,7,8,3.72,0,7.14-2.7,7.14-8,0-5.52-3.42-8.16-7.14-8.16C198.24,177.36,195.48,181,195.48,185.46Z"/><path class="a" d="M241.08,154.26H247V198h-5.88v-2.64a9.7,9.7,0,0,1-7.56,3.42c-7.8,0-12.24-6.48-12.24-13.44,0-8.22,5.64-13.26,12.3-13.26a9.21,9.21,0,0,1,7.5,3.6Zm-13.8,31.2c0,4.38,2.76,8,7,8,3.72,0,7.14-2.7,7.14-8,0-5.52-3.42-8.16-7.14-8.16C230,177.36,227.28,181,227.28,185.46Z"/><path class="a" d="M277,192.24a13.24,13.24,0,0,1-4.26,4.62,13.9,13.9,0,0,1-7.44,1.92,11.2,11.2,0,0,1-8.52-3.24,13.56,13.56,0,0,1-3.72-9.66,14.81,14.81,0,0,1,4-10.38,11.51,11.51,0,0,1,8.46-3.42,10.88,10.88,0,0,1,8.1,3.3c3.24,3.36,3.54,8,3.54,10.68v.72H259.08a8.35,8.35,0,0,0,2.16,5.1,6,6,0,0,0,4.5,1.62,6.19,6.19,0,0,0,4-1.26,9.12,9.12,0,0,0,2.34-2.76ZM271.2,182a6.11,6.11,0,0,0-1.8-3.42,6.13,6.13,0,0,0-8.1.18,6.62,6.62,0,0,0-1.8,3.24Z"/><path class="a" d="M304.5,158v40h-6.12V158Z"/><path class="a" d="M313,172.74h5.88v2.34a8.7,8.7,0,0,1,6.84-3c4.68,0,6.66,2.34,7.44,3.42,1,1.38,1.56,3.12,1.56,7V198H328.8V184c0-6.42-2.4-6.6-4.62-6.6-2.64,0-5.34.36-5.34,8.52V198H313Z"/><path class="a" d="M360.6,154.26h5.88V198H360.6v-2.64a9.7,9.7,0,0,1-7.56,3.42c-7.8,0-12.24-6.48-12.24-13.44,0-8.22,5.64-13.26,12.3-13.26a9.21,9.21,0,0,1,7.5,3.6Zm-13.8,31.2c0,4.38,2.76,8,7,8,3.72,0,7.14-2.7,7.14-8,0-5.52-3.42-8.16-7.14-8.16C349.56,177.36,346.8,181,346.8,185.46Z"/><path class="a" d="M376.86,158.52a3.78,3.78,0,1,1-3.78,3.78A3.69,3.69,0,0,1,376.86,158.52Zm2.94,14.22V198h-5.88V172.74Z"/><path class="a" d="M390.48,172.74l6.48,14.4,6.48-14.4H410L397,199.8l-13.08-27.06Z"/><path class="a" d="M417.06,158.52a3.78,3.78,0,1,1-3.78,3.78A3.69,3.69,0,0,1,417.06,158.52ZM420,172.74V198h-5.88V172.74Z"/><path class="a" d="M445.92,154.26h5.88V198h-5.88v-2.64a9.7,9.7,0,0,1-7.56,3.42c-7.8,0-12.24-6.48-12.24-13.44,0-8.22,5.64-13.26,12.3-13.26a9.21,9.21,0,0,1,7.5,3.6Zm-13.8,31.2c0,4.38,2.76,8,7,8,3.72,0,7.14-2.7,7.14-8,0-5.52-3.42-8.16-7.14-8.16C434.88,177.36,432.12,181,432.12,185.46Z"/><path class="a" d="M465.12,172.74V187.2a7.27,7.27,0,0,0,1.08,4.56,5.11,5.11,0,0,0,7.68,0A7.27,7.27,0,0,0,475,187.2V172.74h5.88v14.64c0,3.24-.36,5.94-2.7,8.28a11.52,11.52,0,0,1-8.22,3.12,11.1,11.1,0,0,1-8-3.12c-2.34-2.34-2.7-5-2.7-8.28V172.74Z"/><path class="a" d="M506.76,172.74h5.88V198h-5.88v-2.64a9.7,9.7,0,0,1-7.56,3.42c-7.8,0-12.24-6.48-12.24-13.44,0-8.22,5.64-13.26,12.3-13.26a9.21,9.21,0,0,1,7.5,3.6ZM493,185.46c0,4.38,2.76,8,7,8,3.72,0,7.14-2.7,7.14-8,0-5.52-3.42-8.16-7.14-8.16C495.72,177.36,493,181,493,185.46Z"/><path class="a" d="M526,154.26V198h-5.88V154.26Z"/><path class="a" d="M565.86,154.26h5.88V198h-5.88v-2.64a9.7,9.7,0,0,1-7.56,3.42c-7.8,0-12.24-6.48-12.24-13.44,0-8.22,5.64-13.26,12.3-13.26a9.21,9.21,0,0,1,7.5,3.6Zm-13.8,31.2c0,4.38,2.76,8,7,8,3.72,0,7.14-2.7,7.14-8,0-5.52-3.42-8.16-7.14-8.16C554.82,177.36,552.06,181,552.06,185.46Z"/><path class="a" d="M601.8,192.24a13.24,13.24,0,0,1-4.26,4.62,13.9,13.9,0,0,1-7.44,1.92,11.2,11.2,0,0,1-8.52-3.24,13.56,13.56,0,0,1-3.72-9.66,14.81,14.81,0,0,1,4-10.38,11.51,11.51,0,0,1,8.46-3.42,10.88,10.88,0,0,1,8.1,3.3c3.24,3.36,3.54,8,3.54,10.68v.72H583.86a8.35,8.35,0,0,0,2.16,5.1,6,6,0,0,0,4.5,1.62,6.19,6.19,0,0,0,4-1.26,9.12,9.12,0,0,0,2.34-2.76ZM596,182a6.11,6.11,0,0,0-1.8-3.42,6.13,6.13,0,0,0-8.1.18,6.62,6.62,0,0,0-1.8,3.24Z"/><path class="a" d="M646.67,188.34H629.58L625.2,198h-6.6l19.92-42.36,19,42.36h-6.59Zm-2.46-5.76L638.28,169l-6.18,13.56Z"/><path class="a" d="M679.91,154.26h5.88V198h-5.88v-2.64a9.7,9.7,0,0,1-7.56,3.42c-7.8,0-12.23-6.48-12.23-13.44,0-8.22,5.63-13.26,12.29-13.26a9.21,9.21,0,0,1,7.5,3.6Zm-13.79,31.2c0,4.38,2.76,8,7,8,3.72,0,7.14-2.7,7.14-8,0-5.52-3.42-8.16-7.14-8.16C668.88,177.36,666.12,181,666.12,185.46Z"/><path class="a" d="M696.47,172.74l6.49,14.4,6.47-14.4H716L703,199.8l-13.08-27.06Z"/><path class="a" d="M745.19,185.4a13.5,13.5,0,0,1-27,0c0-7.8,5.88-13.32,13.5-13.32S745.19,177.6,745.19,185.4Zm-6,.06c0-5.76-3.78-8.1-7.5-8.1s-7.5,2.34-7.5,8.1c0,4.86,2.88,8,7.5,8S739.2,190.32,739.2,185.46Z"/><path class="a" d="M770.88,180.48a9.93,9.93,0,0,0-7.14-3.12,7.56,7.56,0,0,0-5.58,2.22A8.07,8.07,0,0,0,756,185.4a8.37,8.37,0,0,0,2.28,6.06,7.64,7.64,0,0,0,5.34,2,9.87,9.87,0,0,0,7.26-3.24v6.54a13.88,13.88,0,0,1-7.68,2c-4.2,0-7.2-1.2-9.6-3.72a13.13,13.13,0,0,1-3.6-9.48,13.49,13.49,0,0,1,3.84-9.78c2-2,5.16-3.72,10.13-3.72a13.62,13.62,0,0,1,6.91,1.8Z"/><path class="a" d="M795,172.74h5.88V198H795v-2.64a9.7,9.7,0,0,1-7.56,3.42c-7.8,0-12.23-6.48-12.23-13.44,0-8.22,5.63-13.26,12.29-13.26a9.21,9.21,0,0,1,7.5,3.6Zm-13.8,12.72c0,4.38,2.76,8,7,8,3.72,0,7.14-2.7,7.14-8,0-5.52-3.42-8.16-7.14-8.16C784,177.36,781.19,181,781.19,185.46Z"/><path class="a" d="M827.88,180.48a9.93,9.93,0,0,0-7.14-3.12,7.56,7.56,0,0,0-5.58,2.22A8.07,8.07,0,0,0,813,185.4a8.37,8.37,0,0,0,2.28,6.06,7.64,7.64,0,0,0,5.34,2,9.87,9.87,0,0,0,7.26-3.24v6.54a13.88,13.88,0,0,1-7.68,2c-4.2,0-7.2-1.2-9.6-3.72a13.13,13.13,0,0,1-3.6-9.48,13.49,13.49,0,0,1,3.84-9.78c2-2,5.16-3.72,10.13-3.72a13.62,13.62,0,0,1,6.91,1.8Z"/><path class="a" d="M836.46,158.52a3.78,3.78,0,1,1-3.79,3.78A3.69,3.69,0,0,1,836.46,158.52Zm2.93,14.22V198h-5.88V172.74Z"/><path class="a" d="M865.31,172.74h5.88V198h-5.88v-2.64a9.7,9.7,0,0,1-7.56,3.42c-7.8,0-12.24-6.48-12.24-13.44,0-8.22,5.64-13.26,12.3-13.26a9.21,9.21,0,0,1,7.5,3.6Zm-13.8,12.72c0,4.38,2.76,8,7,8,3.72,0,7.14-2.7,7.14-8,0-5.52-3.42-8.16-7.14-8.16C854.27,177.36,851.51,181,851.51,185.46Z"/></svg>