<svg xmlns="http://www.w3.org/2000/svg" viewBox="0 0 864 72"><defs><style>.a{fill:#fff;}</style></defs><rect width="864" height="72"/><path class="a" d="M29.17,22.86a6.2,6.2,0,0,0-6.12-4c-3.72,0-5.64,2.22-5.64,4.8,0,1.2.42,3.3,4.32,4.86l4,1.62c7.38,3,9.42,7.2,9.42,11.76,0,7.62-5.4,12.84-12.9,12.84a11.71,11.71,0,0,1-9.42-4A13,13,0,0,1,9.49,43l6.06-1.32a8.64,8.64,0,0,0,1.68,5.1,6.31,6.31,0,0,0,5.22,2.4A6.42,6.42,0,0,0,29,42.42c0-4.08-3.11-5.76-5.75-6.84L19.45,34c-3.3-1.38-8.16-4.14-8.16-10.14,0-5.4,4.2-10.56,11.7-10.56A11.75,11.75,0,0,1,31,16a13.47,13.47,0,0,1,3.06,4Z"/><path class="a" d="M67.44,41.4a13.12,13.12,0,0,1-13.5,13.38A13.12,13.12,0,0,1,40.45,41.4c0-7.8,5.88-13.32,13.49-13.32S67.44,33.6,67.44,41.4Zm-6,.06c0-5.76-3.78-8.1-7.5-8.1s-7.49,2.34-7.49,8.1c0,4.86,2.88,8,7.49,8S61.44,46.32,61.44,41.46Z"/><path class="a" d="M93.12,36.48A9.92,9.92,0,0,0,86,33.36a7.56,7.56,0,0,0-5.58,2.22,8.07,8.07,0,0,0-2.15,5.82,8.37,8.37,0,0,0,2.27,6.06,7.64,7.64,0,0,0,5.34,2,9.84,9.84,0,0,0,7.26-3.24V52.8a13.83,13.83,0,0,1-7.68,2c-4.2,0-7.19-1.2-9.6-3.72a13.13,13.13,0,0,1-3.59-9.48,13.53,13.53,0,0,1,3.83-9.78c2-2,5.16-3.72,10.14-3.72a13.56,13.56,0,0,1,6.9,1.8Z"/><path class="a" d="M101.71,14.52a3.68,3.68,0,0,1,3.77,3.78,3.78,3.78,0,1,1-7.55,0A3.69,3.69,0,0,1,101.71,14.52Zm2.94,14.22V54H98.77V28.74Z"/><path class="a" d="M134.7,48.24a13.24,13.24,0,0,1-4.26,4.62A13.9,13.9,0,0,1,123,54.78a11.2,11.2,0,0,1-8.52-3.24,13.56,13.56,0,0,1-3.72-9.66,14.81,14.81,0,0,1,4-10.38,11.51,11.51,0,0,1,8.46-3.42,10.88,10.88,0,0,1,8.1,3.3c3.24,3.36,3.54,8,3.54,10.68v.72H116.76a8.35,8.35,0,0,0,2.16,5.1,6,6,0,0,0,4.5,1.62,6.19,6.19,0,0,0,4-1.26,9.12,9.12,0,0,0,2.34-2.76ZM128.88,38a6.11,6.11,0,0,0-1.8-3.42,6.13,6.13,0,0,0-8.1.18,6.62,6.62,0,0,0-1.8,3.24Z"/><path class="a" d="M159.48,10.26h5.88V54h-5.88V51.36a9.7,9.7,0,0,1-7.56,3.42c-7.8,0-12.24-6.48-12.24-13.44,0-8.22,5.64-13.26,12.3-13.26a9.21,9.21,0,0,1,7.5,3.6Zm-13.8,31.2c0,4.38,2.76,8,7,8,3.72,0,7.14-2.7,7.14-8,0-5.52-3.42-8.16-7.14-8.16C148.44,33.36,145.68,37,145.68,41.46Z"/><path class="a" d="M191.28,28.74h5.88V54h-5.88V51.36a9.7,9.7,0,0,1-7.56,3.42c-7.8,0-12.24-6.48-12.24-13.44,0-8.22,5.64-13.26,12.3-13.26a9.21,9.21,0,0,1,7.5,3.6Zm-13.8,12.72c0,4.38,2.76,8,7,8,3.72,0,7.14-2.7,7.14-8,0-5.52-3.42-8.16-7.14-8.16C180.24,33.36,177.48,37,177.48,41.46Z"/><path class="a" d="M223.08,10.26H229V54h-5.88V51.36a9.7,9.7,0,0,1-7.56,3.42c-7.8,0-12.24-6.48-12.24-13.44,0-8.22,5.64-13.26,12.3-13.26a9.21,9.21,0,0,1,7.5,3.6Zm-13.8,31.2c0,4.38,2.76,8,7,8,3.72,0,7.14-2.7,7.14-8,0-5.52-3.42-8.16-7.14-8.16C212,33.36,209.28,37,209.28,41.46Z"/><path class="a" d="M259,48.24a13.24,13.24,0,0,1-4.26,4.62,13.9,13.9,0,0,1-7.44,1.92,11.2,11.2,0,0,1-8.52-3.24,13.56,13.56,0,0,1-3.72-9.66,14.81,14.81,0,0,1,4-10.38,11.51,11.51,0,0,1,8.46-3.42,10.88,10.88,0,0,1,8.1,3.3c3.24,3.36,3.54,8,3.54,10.68v.72H241.08a8.35,8.35,0,0,0,2.16,5.1,6,6,0,0,0,4.5,1.62,6.19,6.19,0,0,0,4-1.26,9.12,9.12,0,0,0,2.34-2.76ZM253.2,38a6.11,6.11,0,0,0-1.8-3.42,6.13,6.13,0,0,0-8.1.18A6.62,6.62,0,0,0,241.5,38Z"/><path class="a" d="M286.5,14V54h-6.12V14Z"/><path class="a" d="M295,28.74h5.88v2.34a8.7,8.7,0,0,1,6.84-3c4.68,0,6.66,2.34,7.44,3.42,1,1.38,1.56,3.12,1.56,7V54H310.8V40c0-6.42-2.4-6.6-4.62-6.6-2.64,0-5.34.36-5.34,8.52V54H295Z"/><path class="a" d="M342.6,10.26h5.88V54H342.6V51.36A9.7,9.7,0,0,1,335,54.78c-7.8,0-12.24-6.48-12.24-13.44,0-8.22,5.64-13.26,12.3-13.26a9.21,9.21,0,0,1,7.5,3.6Zm-13.8,31.2c0,4.38,2.76,8,7,8,3.72,0,7.14-2.7,7.14-8,0-5.52-3.42-8.16-7.14-8.16C331.56,33.36,328.8,37,328.8,41.46Z"/><path class="a" d="M358.86,14.52a3.78,3.78,0,1,1-3.78,3.78A3.69,3.69,0,0,1,358.86,14.52Zm2.94,14.22V54h-5.88V28.74Z"/><path class="a" d="M372.48,28.74,379,43.14l6.48-14.4H392L379,55.8,365.88,28.74Z"/><path class="a" d="M399.06,14.52a3.78,3.78,0,1,1-3.78,3.78A3.69,3.69,0,0,1,399.06,14.52ZM402,28.74V54h-5.88V28.74Z"/><path class="a" d="M427.92,10.26h5.88V54h-5.88V51.36a9.7,9.7,0,0,1-7.56,3.42c-7.8,0-12.24-6.48-12.24-13.44,0-8.22,5.64-13.26,12.3-13.26a9.21,9.21,0,0,1,7.5,3.6Zm-13.8,31.2c0,4.38,2.76,8,7,8,3.72,0,7.14-2.7,7.14-8,0-5.52-3.42-8.16-7.14-8.16C416.88,33.36,414.12,37,414.12,41.46Z"/><path class="a" d="M447.12,28.74V43.2a7.27,7.27,0,0,0,1.08,4.56,5.11,5.11,0,0,0,7.68,0A7.27,7.27,0,0,0,457,43.2V28.74h5.88V43.38c0,3.24-.36,5.94-2.7,8.28a11.52,11.52,0,0,1-8.22,3.12,11.1,11.1,0,0,1-8-3.12c-2.34-2.34-2.7-5-2.7-8.28V28.74Z"/><path class="a" d="M488.76,28.74h5.88V54h-5.88V51.36a9.7,9.7,0,0,1-7.56,3.42c-7.8,0-12.24-6.48-12.24-13.44,0-8.22,5.64-13.26,12.3-13.26a9.21,9.21,0,0,1,7.5,3.6ZM475,41.46c0,4.38,2.76,8,7,8,3.72,0,7.14-2.7,7.14-8,0-5.52-3.42-8.16-7.14-8.16C477.72,33.36,475,37,475,41.46Z"/><path class="a" d="M508,10.26V54h-5.88V10.26Z"/><path class="a" d="M547.86,10.26h5.88V54h-5.88V51.36a9.7,9.7,0,0,1-7.56,3.42c-7.8,0-12.24-6.48-12.24-13.44,0-8.22,5.64-13.26,12.3-13.26a9.21,9.21,0,0,1,7.5,3.6Zm-13.8,31.2c0,4.38,2.76,8,7,8,3.72,0,7.14-2.7,7.14-8,0-5.52-3.42-8.16-7.14-8.16C536.82,33.36,534.06,37,534.06,41.46Z"/><path class="a" d="M583.8,48.24a13.24,13.24,0,0,1-4.26,4.62,13.9,13.9,0,0,1-7.44,1.92,11.2,11.2,0,0,1-8.52-3.24,13.56,13.56,0,0,1-3.72-9.66,14.81,14.81,0,0,1,4-10.38,11.51,11.51,0,0,1,8.46-3.42,10.88,10.88,0,0,1,8.1,3.3c3.24,3.36,3.54,8,3.54,10.68v.72H565.86a8.35,8.35,0,0,0,2.16,5.1,6,6,0,0,0,4.5,1.62,6.19,6.19,0,0,0,4-1.26,9.12,9.12,0,0,0,2.34-2.76ZM578,38a6.11,6.11,0,0,0-1.8-3.42,6.13,6.13,0,0,0-8.1.18,6.62,6.62,0,0,0-1.8,3.24Z"/><path class="a" d="M628.67,44.34H611.58L607.2,54h-6.6l19.92-42.36,19,42.36h-6.59Zm-2.46-5.76L620.28,25,614.1,38.58Z"/><path class="a" d="M661.91,10.26h5.88V54h-5.88V51.36a9.7,9.7,0,0,1-7.56,3.42c-7.8,0-12.23-6.48-12.23-13.44,0-8.22,5.63-13.26,12.29-13.26a9.21,9.21,0,0,1,7.5,3.6Zm-13.79,31.2c0,4.38,2.76,8,7,8,3.72,0,7.14-2.7,7.14-8,0-5.52-3.42-8.16-7.14-8.16C650.88,33.36,648.12,37,648.12,41.46Z"/><path class="a" d="M678.47,28.74,685,43.14l6.47-14.4H698L685,55.8,671.88,28.74Z"/><path class="a" d="M727.19,41.4a13.5,13.5,0,0,1-27,0c0-7.8,5.88-13.32,13.5-13.32S727.19,33.6,727.19,41.4Zm-6,.06c0-5.76-3.78-8.1-7.5-8.1s-7.5,2.34-7.5,8.1c0,4.86,2.88,8,7.5,8S721.2,46.32,721.2,41.46Z"/><path class="a" d="M752.88,36.48a9.93,9.93,0,0,0-7.14-3.12,7.56,7.56,0,0,0-5.58,2.22A8.07,8.07,0,0,0,738,41.4a8.37,8.37,0,0,0,2.28,6.06,7.64,7.64,0,0,0,5.34,2,9.87,9.87,0,0,0,7.26-3.24V52.8a13.88,13.88,0,0,1-7.68,2c-4.2,0-7.2-1.2-9.6-3.72a13.13,13.13,0,0,1-3.6-9.48,13.49,13.49,0,0,1,3.84-9.78c2-2,5.16-3.72,10.13-3.72a13.62,13.62,0,0,1,6.91,1.8Z"/><path class="a" d="M777,28.74h5.88V54H777V51.36a9.7,9.7,0,0,1-7.56,3.42c-7.8,0-12.23-6.48-12.23-13.44,0-8.22,5.63-13.26,12.29-13.26a9.21,9.21,0,0,1,7.5,3.6Zm-13.8,12.72c0,4.38,2.76,8,7,8,3.72,0,7.14-2.7,7.14-8,0-5.52-3.42-8.16-7.14-8.16C766,33.36,763.19,37,763.19,41.46Z"/><path class="a" d="M809.88,36.48a9.93,9.93,0,0,0-7.14-3.12,7.56,7.56,0,0,0-5.58,2.22A8.07,8.07,0,0,0,795,41.4a8.37,8.37,0,0,0,2.28,6.06,7.64,7.64,0,0,0,5.34,2,9.87,9.87,0,0,0,7.26-3.24V52.8a13.88,13.88,0,0,1-7.68,2c-4.2,0-7.2-1.2-9.6-3.72a13.13,13.13,0,0,1-3.6-9.48,13.49,13.49,0,0,1,3.84-9.78c2-2,5.16-3.72,10.13-3.72a13.62,13.62,0,0,1,6.91,1.8Z"/><path class="a" d="M818.46,14.52a3.69,3.69,0,0,1,3.77,3.78,3.78,3.78,0,1,1-3.77-3.78Zm2.93,14.22V54h-5.88V28.74Z"/><path class="a" d="M847.31,28.74h5.88V54h-5.88V51.36a9.7,9.7,0,0,1-7.56,3.42c-7.8,0-12.24-6.48-12.24-13.44,0-8.22,5.64-13.26,12.3-13.26a9.21,9.21,0,0,1,7.5,3.6Zm-13.8,12.72c0,4.38,2.76,8,7,8,3.72,0,7.14-2.7,7.14-8,0-5.52-3.42-8.16-7.14-8.16C836.27,33.36,833.51,37,833.51,41.46Z"/></svg>